<svg width="8" height="12" viewBox="0 0 8 12" fill="none" xmlns="http://www.w3.org/2000/svg">
<path d="M3.06169 8.34634C2.77775 8.34634 2.54436 8.11646 2.54788 7.83253V7.83253C2.55566 7.20673 2.61321 6.95528 2.732 6.55947C2.85474 6.16365 3.03291 5.84396 3.26652 5.60038C3.50012 5.3568 3.78124 5.13606 4.10987 4.93815C4.35536 4.78592 4.5751 4.62797 4.76912 4.46432C4.96313 4.30067 5.11754 4.11989 5.23237 3.92198C5.34719 3.72027 5.4046 3.49572 5.4046 3.24834C5.4046 2.98573 5.33927 2.75547 5.20861 2.55756C5.07795 2.35966 4.90176 2.20742 4.68003 2.10086C4.46226 1.99429 4.22074 1.94101 3.95546 1.94101C3.69809 1.94101 3.45459 1.99619 3.22494 2.10657C2.9953 2.21313 2.80723 2.37298 2.66073 2.58611V2.58611C2.39537 2.96526 2.05708 3.36822 1.59429 3.36822H1.02635C0.463879 3.36822 -0.00912576 2.89538 0.148712 2.35552C0.243962 2.02972 0.384444 1.73932 0.570156 1.4843C0.930463 0.985728 1.40757 0.614653 2.00148 0.371075C2.5954 0.123691 3.25068 0 3.96733 0C4.75526 0 5.45212 0.125595 6.05791 0.376784C6.6637 0.624167 7.13883 0.983825 7.4833 1.45576C7.82777 1.92769 8 2.49667 8 3.1627C8 3.60799 7.92279 4.00381 7.76837 4.35014C7.61792 4.69267 7.40609 4.99715 7.13289 5.26356C6.85969 5.52617 6.53699 5.76403 6.16481 5.97716C5.85202 6.15604 5.59466 6.34253 5.39272 6.53663C5.19475 6.73073 5.04628 6.95528 4.94729 7.21028C4.85226 7.46527 4.80864 7.46059 4.79881 7.83253V7.83253C4.79133 8.11582 4.56839 8.34634 4.285 8.34634H3.06169ZM3.72383 12C3.32789 12 2.98936 11.8668 2.70824 11.6004C2.43108 11.3302 2.29448 11.0067 2.29844 10.6299C2.29448 10.2569 2.43108 9.9372 2.70824 9.67079C2.98936 9.40438 3.32789 9.27117 3.72383 9.27117C4.09998 9.27117 4.43059 9.40438 4.71566 9.67079C5.00074 9.9372 5.14526 10.2569 5.14922 10.6299C5.14526 10.8811 5.07597 11.1113 4.94135 11.3206C4.81069 11.5262 4.63846 11.6917 4.42465 11.8173C4.21084 11.9391 3.97723 12 3.72383 12Z" fill="white"/>
</svg>
