<svg width="12" height="12" viewBox="0 0 12 12" fill="none" xmlns="http://www.w3.org/2000/svg">
<path fill-rule="evenodd" clip-rule="evenodd" d="M9.00008 3C9.00008 4.65685 7.65693 6 6.00008 6C4.34323 6 3.00008 4.65685 3.00008 3C3.00008 1.34315 4.34323 0 6.00008 0C7.65693 0 9.00008 1.34315 9.00008 3ZM11.7441 10.9057C11.4826 8.84272 9.4174 7.44934 7.13987 7.29274C6.38837 7.23566 5.6232 7.23581 4.85895 7.29285C2.5873 7.46003 0.517991 8.83949 0.256038 10.9057C0.20394 11.3166 0.494826 11.6919 0.905751 11.744C1.31667 11.7961 1.69203 11.5053 1.74413 11.0943C1.88216 10.0056 3.09833 8.92636 4.96937 8.78878L4.97021 8.78872C5.66198 8.73707 6.35284 8.73715 7.02884 8.78863L7.02884 8.78866L7.03471 8.78906C8.89886 8.91634 10.1177 10.0032 10.256 11.0943C10.3081 11.5053 10.6835 11.7961 11.0944 11.744C11.5053 11.6919 11.7962 11.3166 11.7441 10.9057Z" fill="#727986"/>
</svg>
