<svg class="package-paper-icon" viewBox="0 0 17 18"   xmlns="http://www.w3.org/2000/svg"> 
<path d="M4.83966 1.47954L6.6798 0.432C7.68222 -0.144 9.31771 -0.144 10.3289 0.432L15.0245 3.10503C15.5249 3.38867 15.9826 3.87342 16.327 4.43659C16.2053 4.40768 16.0726 4.42413 15.9565 4.49297L12.952 6.27428L4.83966 1.47954Z" />
<path d="M4.05317 1.92727L1.98429 3.10503C1.49562 3.38198 1.04775 3.85068 0.706298 4.3969C0.802479 4.39116 0.901349 4.41309 0.990491 4.46589L8.49984 8.91389L11.9709 6.85598L4.29743 2.32067C4.15112 2.2342 4.06501 2.0848 4.05317 1.92727Z"/>
<path d="M0.316679 5.16914C0.14721 5.60088 0.0498047 6.04655 0.0498047 6.462V11.547C0.0498047 12.789 0.920322 14.301 1.98429 14.904L6.6798 17.577C7.0866 17.8071 7.5991 17.9438 8.13151 17.9872C8.0499 17.8982 8.00008 17.7796 8.00008 17.6493V9.78013L0.480857 5.32629C0.412476 5.28578 0.357272 5.23153 0.316679 5.16914Z"/>
<path d="M8.86796 17.9879C9.40369 17.9454 9.91977 17.8085 10.3289 17.577L15.0245 14.904C16.0884 14.301 16.9589 12.789 16.9589 11.547V6.462C16.9589 6.03025 16.8537 5.56587 16.6718 5.1184C16.6316 5.21325 16.5619 5.29659 16.4665 5.35315L13.3965 7.1733V10.1162C13.3965 10.3924 13.1726 10.6162 12.8965 10.6162C12.6203 10.6162 12.3965 10.3924 12.3965 10.1162V7.76618L9.00008 9.77985V17.6493C9.00008 17.7799 8.94998 17.8989 8.86796 17.9879Z"/>
</svg>
